<svg xmlns="http://www.w3.org/2000/svg" width="204" height="161" viewBox="0 0 204 161">
  <path fill="#71d295" d="M196.013099,57.98 C200.372841,59.237499 203.5615,63.2573237 203.5615,68.0219 C203.5615,73.7932756 198.882876,78.4719 193.1115,78.4719 L150.807,78.4719 C145.035624,78.4719 140.357,73.7932756 140.357,68.0219 C140.357,63.2573237 143.545659,59.237499 147.905401,57.98 L196.013099,57.98 Z M171.751,139.2059 C177.522376,139.2059 182.201,143.884524 182.201,149.6559 C182.201,155.427276 177.522376,160.1059 171.751,160.1059 L165.6225,160.1059 C159.851124,160.1059 155.1725,155.427276 155.1725,149.6559 C155.1725,143.884524 159.851124,139.2059 165.6225,139.2059 L171.751,139.2059 Z M177.344,0.8739 C183.115376,0.8739 187.794,5.552524 187.794,11.3239 C187.794,17.095276 183.115376,21.7739 177.344,21.7739 L98.328,21.7739 C97.877039,21.7739 97.432749,21.745335 96.996842,21.689915 C96.452131,21.76796 95.92698,21.881473 95.421401,22.030465 C86.114655,22.724717 78.7795,30.49575 78.7795,39.98 C78.7795,49.921125 86.838375,57.98 96.7795,57.98 L122.114099,57.98 C126.473841,59.237499 129.6625,63.2573237 129.6625,68.0219 C129.6625,73.7932756 124.983876,78.4719 119.2125,78.4719 L97.213323,78.4719 C94.811258,78.7366193 92.782438,79.6953615 91.1278,81.35 C89.1452,83.3337 88.1528,85.753 88.1528,88.609 C88.1528,91.3853 89.1452,93.7653 91.1278,95.749 C92.40546,97.0841867 93.906224,97.9839867 95.62966,98.4484 L146.761,98.4484 C152.532376,98.4484 157.211,103.127024 157.211,108.8984 C157.211,114.669776 152.532376,119.3484 146.761,119.3484 L96.407161,119.3484 C94.354002,119.728478 92.593998,120.667794 91.1278,122.167 C89.1452,124.1103 88.1528,126.5105 88.1528,129.3665 C88.1528,132.1832 89.1452,134.5632 91.1278,136.5065 C92.357249,137.819758 93.793283,138.719302 95.435516,139.2059 L136.5865,139.2059 C142.357876,139.2059 147.0365,143.884524 147.0365,149.6559 C147.0365,155.427276 142.357876,160.1059 136.5865,160.1059 L92.735,160.1059 C92.435085,160.1059 92.138122,160.093266 91.844612,160.0685 L79.0505,160.0685 C68.3405,159.9495 58.0458,157.748 48.17,153.464 C38.8082,149.3787 30.5187,143.6667 23.2978,136.328 C16.04,129.069 10.4065,120.6997 6.401,111.219 C2.593,102.056 0.5497,92.4765 0.2725,82.4805 L0.2725,78.4345 C0.5497,68.3588 2.593,58.74 6.401,49.577 C10.4065,39.9773 16.04,31.5485 23.2978,24.2895 C30.5187,16.952 38.8082,11.3185 48.17,7.3915 C58.0458,3.2265 68.3405,1.0845 79.0505,0.9655 L80.7153,0.9655 C84.1511,0.9655 97.618826,0.8739 98.328,0.8739 L177.344,0.8739 Z"/>
</svg>
